<svg width="92" height="24" viewBox="0 0 92 24" fill="none" xmlns="http://www.w3.org/2000/svg">
<path d="M1.0584 24V0.118229H7.53089C9.26774 0.118229 10.5297 0.543397 11.3167 1.39373C12.1127 2.23502 12.5108 3.62812 12.5108 5.57304V6.61786C12.5108 7.73958 12.3072 8.64871 11.9002 9.34527C11.5021 10.0418 10.8915 10.4986 10.0683 10.7158C11.1448 10.9871 11.864 11.6249 12.2258 12.629C12.5967 13.6241 12.7822 14.8408 12.7822 16.2791C12.7822 17.826 12.6374 19.1784 12.3479 20.3363C12.0585 21.4942 11.5338 22.3943 10.7739 23.0366C10.014 23.6788 8.93304 24 7.53089 24H1.0584ZM5.72619 9.11459H6.70317C7.14643 9.11459 7.43138 8.94271 7.55803 8.59896C7.68467 8.25521 7.748 7.84361 7.748 7.36417V4.96242C7.748 4.1935 7.40877 3.80904 6.73031 3.80904H5.72619V9.11459ZM6.20111 19.7935C7.44043 19.7935 8.06009 19.2055 8.06009 18.0295V15.0443C8.06009 14.3659 7.95606 13.8321 7.748 13.4432C7.54898 13.0451 7.16905 12.8461 6.60819 12.8461H5.72619V19.7664C5.9252 19.7845 6.08351 19.7935 6.20111 19.7935ZM14.3562 24V0.118229H23.9089V4.73175H19.2139V9.38597H23.7189V13.8774H19.2139V19.3457H24.221V24H14.3562ZM27.6811 24L25.1165 0.118229H29.7843L31.1005 15.1936L32.4439 0.118229H36.8946L38.1701 15.1936L39.4456 0.118229H44.1677L41.5624 24H35.8362L34.6421 12.5069L33.5023 24H27.6811ZM45.5924 24V0.118229H55.1451V4.73175H50.4502V9.38597H54.9551V13.8774H50.4502V19.3457H55.4572V24H45.5924ZM56.3935 24L58.7002 0.118229H66.801L69.0671 24H64.5485L64.2093 20.1463H61.3327L61.0341 24H56.3935ZM61.6719 16.3334H63.843L62.7981 4.18898H62.581L61.6719 16.3334ZM70.5325 24V0.118229H77.8599C79.0811 0.118229 80.0038 0.398659 80.628 0.959518C81.2522 1.51133 81.6683 2.2893 81.8764 3.29342C82.0935 4.28849 82.202 5.45996 82.202 6.80783C82.202 8.11047 82.0347 9.15077 81.7 9.92874C81.3743 10.7067 80.7547 11.2449 79.841 11.5435C80.5918 11.6973 81.1165 12.0727 81.415 12.6697C81.7226 13.2577 81.8764 14.0221 81.8764 14.9629V24H77.1679V14.6508C77.1679 13.9543 77.0231 13.5246 76.7337 13.3617C76.4532 13.1899 75.9964 13.1039 75.3632 13.1039V24H70.5325ZM75.3903 8.96533H76.5437C77.2041 8.96533 77.5342 8.24616 77.5342 6.80783C77.5342 5.87608 77.4619 5.26547 77.3171 4.97599C77.1724 4.68652 76.901 4.54178 76.503 4.54178H75.3903V8.96533Z" fill="black"/>
<path d="M87.9668 0C88.6422 0 89.2457 0.149481 89.7772 0.448443C90.3197 0.747405 90.7405 1.16817 91.0395 1.71073C91.3384 2.24221 91.4879 2.85121 91.4879 3.53772C91.4879 4.21315 91.3384 4.81661 91.0395 5.3481C90.7405 5.87958 90.3197 6.30035 89.7772 6.61038C89.2457 6.90934 88.6422 7.05882 87.9668 7.05882C87.2914 7.05882 86.6824 6.90934 86.1398 6.61038C85.6083 6.30035 85.1876 5.87958 84.8775 5.3481C84.5786 4.81661 84.4291 4.21315 84.4291 3.53772C84.4291 2.85121 84.5786 2.24221 84.8775 1.71073C85.1876 1.16817 85.6083 0.747405 86.1398 0.448443C86.6824 0.149481 87.2914 0 87.9668 0ZM87.9668 6.21176C88.764 6.21176 89.4007 5.96817 89.8768 5.48097C90.364 4.9827 90.6076 4.33495 90.6076 3.53772C90.6076 2.72941 90.364 2.08166 89.8768 1.59446C89.4007 1.09619 88.764 0.847059 87.9668 0.847059C87.1696 0.847059 86.5329 1.09619 86.0568 1.59446C85.5806 2.08166 85.3426 2.72941 85.3426 3.53772C85.3426 4.34602 85.5806 4.99377 86.0568 5.48097C86.5329 5.96817 87.1696 6.21176 87.9668 6.21176ZM89.528 2.87336C89.528 3.11696 89.4671 3.32734 89.3453 3.5045C89.2346 3.68166 89.0741 3.81453 88.8637 3.90311L89.7273 5.26505H88.4318L87.7177 4.01938H87.618V5.26505H86.5052V1.71073H88.2491C88.6367 1.71073 88.9467 1.82145 89.1793 2.04291C89.4118 2.25329 89.528 2.5301 89.528 2.87336ZM87.6014 3.18893H88.1329C88.2104 3.18893 88.2768 3.16678 88.3322 3.12249C88.3876 3.0782 88.4152 3.01176 88.4152 2.92318C88.4152 2.75709 88.3211 2.67405 88.1329 2.67405H87.6014V3.18893Z" fill="black"/>
</svg>
